<svg width="136" height="48" viewBox="0 0 136 48" fill="none" xmlns="http://www.w3.org/2000/svg">
<path d="M38.5997 27.4883C38.5997 24.9657 40.6118 22.9236 43.0944 22.9236C45.5769 22.9236 47.589 24.9657 47.589 27.4883C47.589 30.0109 45.5769 32.053 43.0944 32.053C40.6118 32.053 38.5997 30.0109 38.5997 27.4883Z" fill="#C51A1B"/>
<path d="M45.1565 2.84293V14.9053H44.7461C44.3256 12.4728 43.3146 9.26954 42.754 7.91815C42.1534 6.52672 41.4126 5.25541 40.782 4.63477C40.1313 3.99411 39.4907 3.65376 38.88 3.50361C38.2594 3.34344 37.6988 3.36346 37.2083 3.36346H35.9971L36.0171 44.4357H39.9311V44.9463H16.4469V44.4357H20.6412L17.1977 30.5915H7.07729L3.91403 44.4357H8.13838V44.9463H0V44.4357H3.34344L13.5339 0H14.4449L25.6164 44.4357H31.1421V3.35345H29.9308C29.4403 3.35345 28.8797 3.33343 28.2591 3.4936C27.6485 3.65376 27.0078 3.99411 26.3571 4.62476C25.7265 5.2454 24.9757 6.51671 24.3851 7.90814C23.8145 9.25953 22.8135 12.4728 22.3931 14.8953H21.9826V2.84293H45.1565ZM11.8021 9.94023L7.17739 30.071H17.0375L11.8021 9.94023Z" fill="#1D1D1B"/>
<path d="M46.628 44.4257H50.1416V3.35342H47.3888V2.83289H58.5002C62.9548 2.83289 67.6296 5.50564 67.6296 14.0044C67.6296 18.439 65.5875 23.0937 57.6493 23.0937H55.0066V44.4257H58.5102V44.9462H46.638V44.4257H46.628ZM54.9966 22.5832H58.0497C60.4522 22.5832 63.185 21.372 63.185 13.2336C63.185 2.89295 59.7014 3.36343 57.359 3.36343H54.9966V22.5932V22.5832Z" fill="#1D1D1B"/>
<path d="M74.807 35.0661H73.806V36.1072H74.807V35.0661ZM74.7269 38.0492H73.8961V44.9463H74.7269V38.0492ZM82.0845 40.7219C82.0845 39.811 81.9143 39.1403 81.574 38.7099C81.1936 38.2193 80.5529 37.9691 79.662 37.9691C78.701 37.9691 77.9502 38.3695 77.4097 39.1803L77.3596 38.0292H76.5388C76.5388 38.2494 76.5388 38.5697 76.5588 39.0102C76.5788 39.4506 76.5788 39.7709 76.5788 39.9912V44.9363H77.4097V41.2625C77.4097 40.5117 77.5598 39.9011 77.8702 39.4406C78.2405 38.9201 78.7811 38.6598 79.5118 38.6598C80.2426 38.6598 80.7231 38.9001 80.9733 39.3705C81.1535 39.7109 81.2436 40.2615 81.2436 41.0423V44.9363H82.0745V40.7119L82.0845 40.7219ZM88.8515 38.0492V38.6798C88.8515 38.9701 88.8414 39.1903 88.8414 39.3205C88.3409 38.3895 87.5501 37.929 86.459 37.929C85.508 37.929 84.7672 38.2894 84.2167 39.0102C83.7262 39.6608 83.4759 40.4717 83.4759 41.4427C83.4759 42.4137 83.7262 43.2846 84.2167 43.9052C84.7472 44.5759 85.508 44.9162 86.499 44.9162C87.4901 44.9162 88.2709 44.4858 88.8114 43.6349C88.8114 44.7661 88.7113 45.5469 88.5211 45.9873C88.2008 46.7181 87.5401 47.0785 86.5491 47.0785C85.3378 47.0785 84.7372 46.618 84.7472 45.687H83.8963C83.8963 47.0284 84.7973 47.6991 86.6192 47.6991C87.6002 47.6991 88.3309 47.4489 88.8214 46.9483C89.2218 46.5279 89.4721 45.9073 89.5722 45.0764C89.6223 44.686 89.6523 43.9052 89.6523 42.744V40.3015C89.6523 39.6909 89.6723 38.9501 89.7023 38.0692H88.8414L88.8515 38.0492ZM88.3509 43.3646C87.9605 43.9853 87.3799 44.2956 86.6192 44.2956C85.8584 44.2956 85.2978 44.0053 84.9074 43.4247C84.5771 42.9142 84.4069 42.2635 84.4069 41.4827C84.4069 40.7019 84.5771 40.0212 84.9074 39.5007C85.2978 38.89 85.8784 38.5797 86.6292 38.5797C87.3299 38.5797 87.8905 38.88 88.3009 39.4806C88.6613 40.0112 88.8414 40.6418 88.8414 41.3626C88.8414 42.1734 88.6813 42.8341 88.3509 43.3546M94.247 37.9391C93.2159 37.9391 92.4251 38.2994 91.8646 39.0302C91.354 39.6909 91.1038 40.5417 91.1038 41.6128C91.1038 42.6839 91.344 43.4647 91.8245 44.0854C92.3651 44.7561 93.1259 45.0864 94.1369 45.0864C95.7486 45.0864 96.6995 44.3156 96.9898 42.764H96.199C96.1089 43.2946 95.8887 43.715 95.5584 44.0253C95.218 44.3356 94.7876 44.4858 94.247 44.4858C93.5263 44.4858 92.9557 44.2155 92.5252 43.665C92.1448 43.1644 91.9546 42.5438 91.9546 41.793V41.6329H97.0399C97.0399 39.1703 96.1089 37.9391 94.247 37.9391ZM91.9847 41.0122C92.0447 40.3315 92.255 39.7609 92.6153 39.3205C93.0157 38.83 93.5463 38.5797 94.197 38.5797C94.8476 38.5797 95.3181 38.81 95.6885 39.2804C96.0288 39.7009 96.199 40.2314 96.199 40.8821V41.0222H91.9847V41.0122ZM103.977 40.7219C103.977 39.811 103.807 39.1403 103.477 38.7099C103.096 38.2193 102.455 37.9691 101.565 37.9691C100.604 37.9691 99.8528 38.3695 99.3122 39.1803L99.2622 38.0292H98.4413C98.4413 38.2494 98.4413 38.5697 98.4613 39.0102C98.4714 39.4406 98.4814 39.7709 98.4814 39.9912V44.9363H99.3122V41.2625C99.3122 40.5117 99.4624 39.9011 99.7727 39.4406C100.133 38.9201 100.684 38.6598 101.414 38.6598C102.145 38.6598 102.616 38.9001 102.876 39.3705C103.056 39.7109 103.146 40.2615 103.146 41.0423V44.9363H103.977V40.7119V40.7219ZM106.71 35.0661H105.709V36.1072H106.71V35.0661ZM106.63 38.0492H105.799V44.9463H106.63V38.0492ZM111.184 37.9391C110.153 37.9391 109.363 38.2994 108.802 39.0302C108.291 39.6909 108.041 40.5417 108.041 41.6128C108.041 42.6839 108.281 43.4647 108.762 44.0854C109.303 44.7561 110.063 45.0864 111.064 45.0864C112.676 45.0864 113.627 44.3156 113.927 42.764H113.136C113.046 43.2946 112.836 43.715 112.496 44.0253C112.155 44.3356 111.725 44.4858 111.184 44.4858C110.464 44.4858 109.893 44.2155 109.463 43.665C109.082 43.1644 108.892 42.5438 108.892 41.793V41.6329H113.977C113.977 39.1703 113.046 37.9391 111.184 37.9391ZM108.922 41.0122C108.992 40.3315 109.192 39.7609 109.553 39.3205C109.953 38.83 110.484 38.5797 111.134 38.5797C111.785 38.5797 112.256 38.81 112.626 39.2804C112.966 39.7009 113.126 40.2314 113.126 40.8821V41.0222H108.912L108.922 41.0122ZM120.894 42.8842V38.0492H120.064V41.6529C120.064 42.4137 119.913 43.0343 119.613 43.4948C119.253 44.0453 118.712 44.3156 117.991 44.3156C116.81 44.3156 116.23 43.5248 116.23 41.9332V38.0392H115.399V42.2635C115.399 43.1744 115.579 43.8451 115.929 44.2856C116.33 44.7561 116.97 44.9963 117.851 44.9963C118.802 44.9963 119.543 44.6059 120.094 43.8351L120.124 44.9463H120.944C120.914 44.0854 120.904 43.4047 120.904 42.8842M126.09 38.0292C125.97 38.0091 125.84 37.9991 125.709 37.9991C124.778 37.9991 124.068 38.3695 123.587 39.1203L123.537 38.0392H122.716C122.716 38.2894 122.716 38.6198 122.726 39.0502C122.746 39.5607 122.756 39.9011 122.756 40.0612V44.9363H123.587V41.0322C123.587 39.5407 124.238 38.7999 125.529 38.7999C125.709 38.7999 125.89 38.82 126.09 38.86V38.0292ZM129.633 37.9391C128.602 37.9391 127.812 38.2994 127.251 39.0302C126.74 39.6909 126.49 40.5417 126.49 41.6128C126.49 42.6839 126.73 43.4647 127.211 44.0854C127.751 44.7561 128.522 45.0864 129.523 45.0864C131.135 45.0864 132.086 44.3156 132.376 42.764H131.585C131.495 43.2946 131.285 43.715 130.945 44.0253C130.604 44.3356 130.174 44.4858 129.633 44.4858C128.913 44.4858 128.342 44.2155 127.912 43.665C127.531 43.1644 127.341 42.5438 127.341 41.793V41.6329H132.426C132.426 39.1703 131.495 37.9391 129.643 37.9391M127.361 41.0122C127.421 40.3315 127.631 39.7609 127.992 39.3205C128.392 38.83 128.923 38.5797 129.573 38.5797C130.224 38.5797 130.695 38.81 131.065 39.2804C131.405 39.7009 131.575 40.2314 131.575 40.8821V41.0222H127.371L127.361 41.0122Z" fill="#1D1D1B"/>
<path d="M78.6109 30.2711V28.219C78.6109 27.3682 78.4107 26.7575 78.0103 26.3771C77.6099 25.9967 76.9793 25.8066 76.1084 25.8066C75.4277 25.8066 74.8671 25.9567 74.4367 26.247C73.9461 26.5773 73.6959 27.0578 73.6859 27.7085H74.5067C74.5968 26.8576 75.1274 26.4372 76.1084 26.4372C77.2295 26.4372 77.7901 27.0278 77.7901 28.209C77.7901 28.3892 77.7901 28.5494 77.7701 28.6895H77.4197C76.1784 28.6895 75.2575 28.7996 74.6569 28.9998C73.6558 29.3402 73.1553 29.9909 73.1553 30.9518C73.1553 31.6025 73.3956 32.113 73.8761 32.4834C74.3165 32.8038 74.8771 32.9639 75.5578 32.9639C76.5889 32.9639 77.3597 32.5835 77.8702 31.8328C77.9202 32.2832 77.9603 32.6136 77.9803 32.8338H78.7411C78.651 31.9729 78.6009 31.122 78.6009 30.2812M77.4898 31.4123C77.1795 32.063 76.5889 32.3833 75.708 32.3833C75.2475 32.3833 74.8571 32.2632 74.5368 32.0129C74.1864 31.7527 74.0062 31.3923 74.0062 30.9318C74.0062 30.2411 74.3866 29.7706 75.1374 29.5104C75.5978 29.3602 76.2485 29.2801 77.1194 29.2801C77.3697 29.2801 77.5899 29.2801 77.8001 29.3102C77.8001 30.2912 77.69 30.9919 77.4898 31.4123ZM83.7763 25.9167C83.6561 25.8966 83.526 25.8866 83.3959 25.8866C82.4649 25.8866 81.7642 26.257 81.2737 27.0078L81.2236 25.9267H80.4028C80.4028 26.1669 80.4028 26.5073 80.4128 26.9377C80.4328 27.4482 80.4428 27.7886 80.4428 27.9488V32.8238H81.2737V28.9198C81.2737 27.4382 81.9244 26.6975 83.2157 26.6975C83.3859 26.6975 83.5761 26.7175 83.7763 26.7475V25.9167ZM89.7024 30.6015C89.6523 31.132 89.4621 31.5525 89.1017 31.8728C88.7514 32.1931 88.3009 32.3533 87.7804 32.3533C87.0096 32.3533 86.419 32.043 85.9885 31.4223C85.6182 30.8818 85.428 30.2211 85.428 29.4103C85.428 28.5394 85.6082 27.8386 85.9785 27.3081C86.399 26.6975 87.0196 26.3972 87.8505 26.3972C88.9716 26.3972 89.5822 26.9577 89.6823 28.0789H90.4932C90.4231 27.3181 90.1628 26.7475 89.6924 26.3471C89.2219 25.9467 88.6012 25.7465 87.8404 25.7465C86.7794 25.7465 85.9585 26.1069 85.3679 26.8376C84.8173 27.4983 84.5471 28.3792 84.5471 29.4603C84.5471 30.5414 84.8173 31.3623 85.3479 31.9929C85.9185 32.6436 86.7293 32.9739 87.7704 32.9739C88.5412 32.9739 89.1718 32.7737 89.6523 32.3633C90.1328 31.9529 90.4131 31.3723 90.4832 30.6115H89.7024V30.6015ZM97.3302 28.6094C97.3302 27.6885 97.16 27.0178 96.8197 26.5874C96.4393 26.1069 95.7986 25.8666 94.8977 25.8666C93.9467 25.8666 93.206 26.267 92.6554 27.0779V22.9536H91.8246V32.8338H92.6554V29.16C92.6554 28.3992 92.8056 27.7986 93.1159 27.3381C93.4863 26.8176 94.0268 26.5573 94.7576 26.5573C95.4883 26.5573 95.9588 26.7976 96.2191 27.2681C96.3993 27.6084 96.4894 28.159 96.4894 28.9298V32.8238H97.3202V28.5994L97.3302 28.6094ZM100.063 22.9536H99.062V23.9947H100.063V22.9536ZM99.9829 25.9267H99.1521V32.8238H99.9829V25.9267ZM104.828 32.103C104.768 32.103 104.658 32.113 104.518 32.1431C104.377 32.1731 104.267 32.1831 104.197 32.1831C103.787 32.1831 103.517 32.083 103.376 31.8828C103.276 31.7327 103.226 31.4524 103.226 31.0319V26.5373H104.768V25.9267H103.226V24.1348L102.395 24.5052V25.9267H101.024V26.5373H102.395V31.4023C102.395 32.3733 102.886 32.8638 103.857 32.8638C104.107 32.8638 104.428 32.8438 104.828 32.8138V32.103ZM108.512 25.8166C107.481 25.8166 106.69 26.1769 106.129 26.9077C105.619 27.5584 105.368 28.4292 105.368 29.4903C105.368 30.5514 105.609 31.3422 106.089 31.9629C106.63 32.6236 107.401 32.9639 108.402 32.9639C110.013 32.9639 110.964 32.1931 111.255 30.6415H110.464C110.374 31.1721 110.163 31.5925 109.823 31.9028C109.493 32.2131 109.052 32.3633 108.512 32.3633C107.791 32.3633 107.22 32.093 106.79 31.5425C106.41 31.0419 106.219 30.4213 106.219 29.6705V29.5104H111.305C111.305 27.0478 110.374 25.8266 108.512 25.8266M106.249 28.8897C106.309 28.209 106.52 27.6384 106.88 27.198C107.28 26.7075 107.811 26.4572 108.462 26.4572C109.112 26.4572 109.583 26.6875 109.953 27.1579C110.294 27.5784 110.464 28.1089 110.464 28.7596V28.8997H106.259L106.249 28.8897ZM114.688 28.9097L118.042 25.9267H116.92L113.657 28.9198L117.221 32.8238H118.312L114.688 28.8997V28.9097ZM113.577 22.9536H112.746V32.8338H113.577V22.9536ZM122.576 32.103C122.516 32.103 122.416 32.113 122.276 32.1431C122.136 32.1731 122.026 32.1831 121.956 32.1831C121.545 32.1831 121.275 32.083 121.135 31.8828C121.035 31.7327 120.985 31.4524 120.985 31.0319V26.5373H122.526V25.9267H120.985V24.1348L120.154 24.5052V25.9267H118.782V26.5373H120.154V31.4023C120.154 32.3733 120.644 32.8638 121.615 32.8638C121.865 32.8638 122.186 32.8438 122.586 32.8138V32.103H122.576ZM126.27 25.8166C125.239 25.8166 124.448 26.1769 123.898 26.9077C123.387 27.5584 123.127 28.4292 123.127 29.4903C123.127 30.5514 123.367 31.3422 123.848 31.9629C124.388 32.6236 125.159 32.9639 126.16 32.9639C127.772 32.9639 128.723 32.1931 129.013 30.6415H128.222C128.132 31.1721 127.922 31.5925 127.581 31.9028C127.241 32.2131 126.811 32.3633 126.27 32.3633C125.549 32.3633 124.979 32.093 124.548 31.5425C124.168 31.0419 123.978 30.4213 123.978 29.6705V29.5104H129.063C129.063 27.0478 128.132 25.8266 126.27 25.8266M123.998 28.8897C124.058 28.209 124.268 27.6384 124.628 27.198C125.029 26.7075 125.559 26.4572 126.21 26.4572C126.861 26.4572 127.331 26.6875 127.701 27.1579C128.042 27.5784 128.212 28.1089 128.212 28.7596V28.8997H123.998V28.8897ZM136 28.6094C136 27.6985 135.83 27.0278 135.49 26.5974C135.109 26.1069 134.468 25.8566 133.578 25.8566C132.627 25.8566 131.876 26.257 131.325 27.0678L131.275 25.9167H130.454C130.454 26.1369 130.454 26.4572 130.474 26.8977C130.484 27.3281 130.494 27.6585 130.494 27.8787V32.8238H131.325V29.15C131.325 28.3892 131.475 27.7886 131.786 27.3281C132.146 26.8076 132.697 26.5473 133.427 26.5473C134.158 26.5473 134.629 26.7876 134.889 27.258C135.069 27.5984 135.159 28.149 135.159 28.9198V32.8138H135.99V28.5894L136 28.6094Z" fill="#1D1D1B"/>
</svg>
