<svg width="160" height="40" viewBox="0 0 160 40" fill="none" xmlns="http://www.w3.org/2000/svg">
<path d="M19.4216 21.8309C19.4216 20.5616 20.434 19.5341 21.6831 19.5341C22.9322 19.5341 23.9446 20.5616 23.9446 21.8309C23.9446 23.1001 22.9322 24.1276 21.6831 24.1276C20.434 24.1276 19.4216 23.1001 19.4216 21.8309Z" fill="white"/>
<path d="M22.7207 9.43043V15.4997H22.5142C22.3026 14.2758 21.7939 12.664 21.5119 11.9841C21.2097 11.2839 20.8369 10.6443 20.5196 10.332C20.1922 10.0097 19.8699 9.8384 19.5626 9.76285C19.2504 9.68227 18.9683 9.69234 18.7215 9.69234H18.1121L18.1221 30.358H20.0915V30.6149H8.27534V30.358H10.3857L8.6531 23.3922H3.56097L1.96936 30.358H4.09486V30.6149H0V30.358H1.68227L6.80965 8H7.268L12.889 30.358H15.6693V9.6873H15.0598C14.813 9.6873 14.531 9.67723 14.2187 9.75782C13.9114 9.8384 13.5891 10.0097 13.2617 10.327C12.9444 10.6392 12.5666 11.2789 12.2695 11.979C11.9824 12.659 11.4787 14.2758 11.2672 15.4946H11.0606V9.43043H22.7207ZM5.9383 13.0015L3.61133 23.1303H8.57251L5.9383 13.0015Z" fill="white"/>
<path d="M23.4611 30.353H25.2289V9.68732H23.8438V9.42542H29.4346C31.676 9.42542 34.0281 10.7702 34.0281 15.0464C34.0281 17.2777 33.0006 19.6197 29.0065 19.6197H27.6768V30.353H29.4397V30.6149H23.4661V30.353H23.4611ZM27.6718 19.3629H29.208C30.4168 19.3629 31.7918 18.7534 31.7918 14.6586C31.7918 9.45564 30.039 9.69236 28.8604 9.69236H27.6718V19.3679V19.3629Z" fill="white"/>
<path d="M37.6394 25.6437H37.1357V26.1675H37.6394V25.6437ZM37.5991 27.1446H37.1811V30.6149H37.5991V27.1446ZM41.3011 28.4894C41.3011 28.0311 41.2155 27.6936 41.0442 27.477C40.8528 27.2302 40.5305 27.1043 40.0822 27.1043C39.5987 27.1043 39.2209 27.3058 38.949 27.7138L38.9238 27.1345H38.5108C38.5108 27.2454 38.5108 27.4065 38.5208 27.6281C38.5309 27.8498 38.5309 28.0109 38.5309 28.1217V30.6099H38.949V28.7614C38.949 28.3837 39.0245 28.0764 39.1807 27.8447C39.367 27.5828 39.639 27.4519 40.0067 27.4519C40.3744 27.4519 40.6161 27.5727 40.742 27.8095C40.8327 27.9807 40.878 28.2577 40.878 28.6506V30.6099H41.2961V28.4844L41.3011 28.4894ZM44.7059 27.1446V27.4619C44.7059 27.608 44.7009 27.7188 44.7009 27.7843C44.4491 27.3159 44.0512 27.0842 43.5022 27.0842C43.0237 27.0842 42.651 27.2655 42.3739 27.6281C42.1271 27.9555 42.0012 28.3635 42.0012 28.8521C42.0012 29.3406 42.1271 29.7788 42.3739 30.0911C42.6409 30.4286 43.0237 30.5998 43.5223 30.5998C44.0209 30.5998 44.4138 30.3832 44.6858 29.9551C44.6858 30.5243 44.6354 30.9171 44.5397 31.1387C44.3786 31.5064 44.0461 31.6877 43.5475 31.6877C42.938 31.6877 42.6358 31.4561 42.6409 30.9876H42.2128C42.2128 31.6626 42.6661 32 43.5827 32C44.0763 32 44.444 31.8741 44.6908 31.6223C44.8923 31.4107 45.0182 31.0985 45.0686 30.6804C45.0938 30.484 45.1089 30.0911 45.1089 29.5068V28.2779C45.1089 27.9706 45.119 27.5979 45.1341 27.1547H44.7009L44.7059 27.1446ZM44.4541 29.8191C44.2577 30.1314 43.9655 30.2875 43.5827 30.2875C43.2 30.2875 42.9179 30.1415 42.7215 29.8493C42.5553 29.5925 42.4696 29.2651 42.4696 28.8722C42.4696 28.4794 42.5553 28.1369 42.7215 27.8749C42.9179 27.5677 43.21 27.4116 43.5878 27.4116C43.9404 27.4116 44.2224 27.5627 44.4289 27.8649C44.6102 28.1318 44.7009 28.4491 44.7009 28.8118C44.7009 29.2198 44.6203 29.5522 44.4541 29.8141M47.4207 27.0892C46.902 27.0892 46.504 27.2705 46.222 27.6382C45.9651 27.9706 45.8392 28.3988 45.8392 28.9377C45.8392 29.4766 45.9601 29.8695 46.2018 30.1818C46.4738 30.5192 46.8566 30.6854 47.3653 30.6854C48.1762 30.6854 48.6547 30.2976 48.8008 29.5169H48.4029C48.3576 29.7839 48.2468 29.9954 48.0805 30.1515C47.9093 30.3077 47.6927 30.3832 47.4207 30.3832C47.0581 30.3832 46.771 30.2472 46.5544 29.9702C46.363 29.7184 46.2673 29.4061 46.2673 29.0284V28.9478H48.826C48.826 27.7087 48.3576 27.0892 47.4207 27.0892ZM46.2824 28.6355C46.3127 28.293 46.4184 28.0059 46.5997 27.7843C46.8012 27.5375 47.0682 27.4116 47.3956 27.4116C47.7229 27.4116 47.9597 27.5274 48.146 27.7641C48.3173 27.9757 48.4029 28.2426 48.4029 28.57V28.6405H46.2824V28.6355ZM52.3164 28.4894C52.3164 28.0311 52.2308 27.6936 52.0646 27.477C51.8732 27.2302 51.5508 27.1043 51.1026 27.1043C50.6191 27.1043 50.2413 27.3058 49.9693 27.7138L49.9441 27.1345H49.5311C49.5311 27.2454 49.5311 27.4065 49.5412 27.6281C49.5462 27.8447 49.5513 28.0109 49.5513 28.1217V30.6099H49.9693V28.7614C49.9693 28.3837 50.0449 28.0764 50.201 27.8447C50.3823 27.5828 50.6593 27.4519 51.027 27.4519C51.3947 27.4519 51.6314 27.5727 51.7624 27.8095C51.8531 27.9807 51.8984 28.2577 51.8984 28.6506V30.6099H52.3164V28.4844V28.4894ZM53.6915 25.6437H53.1878V26.1675H53.6915V25.6437ZM53.6512 27.1446H53.2331V30.6149H53.6512V27.1446ZM55.9429 27.0892C55.4241 27.0892 55.0262 27.2705 54.7441 27.6382C54.4873 27.9706 54.3613 28.3988 54.3613 28.9377C54.3613 29.4766 54.4822 29.8695 54.724 30.1818C54.996 30.5192 55.3788 30.6854 55.8824 30.6854C56.6933 30.6854 57.1718 30.2976 57.3229 29.5169H56.925C56.8797 29.7839 56.7739 29.9954 56.6027 30.1515C56.4314 30.3077 56.2149 30.3832 55.9429 30.3832C55.5802 30.3832 55.2931 30.2472 55.0766 29.9702C54.8852 29.7184 54.7895 29.4061 54.7895 29.0284V28.9478H57.3481C57.3481 27.7087 56.8797 27.0892 55.9429 27.0892ZM54.8046 28.6355C54.8398 28.293 54.9406 28.0059 55.1219 27.7843C55.3234 27.5375 55.5903 27.4116 55.9177 27.4116C56.2451 27.4116 56.4818 27.5274 56.6682 27.7641C56.8394 27.9757 56.92 28.2426 56.92 28.57V28.6405H54.7995L54.8046 28.6355ZM60.8285 29.5774V27.1446H60.4105V28.9578C60.4105 29.3406 60.3349 29.6529 60.1838 29.8846C60.0025 30.1616 59.7305 30.2976 59.3679 30.2976C58.7735 30.2976 58.4814 29.8997 58.4814 29.0989V27.1396H58.0633V29.2651C58.0633 29.7234 58.154 30.0609 58.3303 30.2825C58.5318 30.5192 58.8541 30.6401 59.2973 30.6401C59.7758 30.6401 60.1485 30.4437 60.4256 30.0558L60.4407 30.6149H60.8537C60.8386 30.1818 60.8335 29.8393 60.8335 29.5774M63.4426 27.1345C63.3821 27.1245 63.3166 27.1194 63.2512 27.1194C62.7828 27.1194 62.4251 27.3058 62.1834 27.6836L62.1582 27.1396H61.7452C61.7452 27.2655 61.7452 27.4317 61.7502 27.6483C61.7603 27.9052 61.7653 28.0764 61.7653 28.157V30.6099H62.1834V28.6456C62.1834 27.8951 62.5108 27.5224 63.1605 27.5224C63.2512 27.5224 63.3418 27.5324 63.4426 27.5526V27.1345ZM65.2256 27.0892C64.7068 27.0892 64.3089 27.2705 64.0268 27.6382C63.7699 27.9706 63.644 28.3988 63.644 28.9377C63.644 29.4766 63.7649 29.8695 64.0067 30.1818C64.2787 30.5192 64.6665 30.6854 65.1702 30.6854C65.9811 30.6854 66.4596 30.2976 66.6056 29.5169H66.2077C66.1624 29.7839 66.0566 29.9954 65.8854 30.1515C65.7141 30.3077 65.4975 30.3832 65.2256 30.3832C64.8629 30.3832 64.5758 30.2472 64.3592 29.9702C64.1678 29.7184 64.0722 29.4061 64.0722 29.0284V28.9478H66.6308C66.6308 27.7087 66.1624 27.0892 65.2306 27.0892M64.0822 28.6355C64.1124 28.293 64.2182 28.0059 64.3995 27.7843C64.601 27.5375 64.868 27.4116 65.1953 27.4116C65.5227 27.4116 65.7595 27.5274 65.9458 27.7641C66.1171 27.9757 66.2027 28.2426 66.2027 28.57V28.6405H64.0873L64.0822 28.6355Z" fill="white"/>
<path d="M39.5534 23.231V22.1985C39.5534 21.7704 39.4526 21.4632 39.2512 21.2718C39.0497 21.0804 38.7324 20.9847 38.2942 20.9847C37.9517 20.9847 37.6696 21.0602 37.453 21.2063C37.2063 21.3725 37.0803 21.6143 37.0753 21.9416H37.4883C37.5336 21.5135 37.8006 21.302 38.2942 21.302C38.8583 21.302 39.1404 21.5991 39.1404 22.1935C39.1404 22.2841 39.1404 22.3647 39.1303 22.4352H38.954C38.3294 22.4352 37.8661 22.4906 37.5639 22.5914C37.0602 22.7626 36.8083 23.09 36.8083 23.5735C36.8083 23.9009 36.9292 24.1578 37.171 24.3442C37.3926 24.5053 37.6747 24.5859 38.0172 24.5859C38.5359 24.5859 38.9238 24.3945 39.1806 24.0168C39.2058 24.2434 39.226 24.4096 39.2361 24.5204H39.6188C39.5735 24.0873 39.5483 23.6592 39.5483 23.2361M38.9893 23.8052C38.8331 24.1326 38.5359 24.2938 38.0927 24.2938C37.861 24.2938 37.6646 24.2333 37.5034 24.1074C37.3271 23.9765 37.2365 23.7952 37.2365 23.5635C37.2365 23.2159 37.4279 22.9792 37.8056 22.8482C38.0373 22.7727 38.3647 22.7324 38.8029 22.7324C38.9288 22.7324 39.0396 22.7324 39.1454 22.7475C39.1454 23.2411 39.09 23.5937 38.9893 23.8052ZM42.1523 21.0401C42.0919 21.03 42.0264 21.025 41.9609 21.025C41.4925 21.025 41.1399 21.2113 40.8931 21.5891L40.8679 21.0451H40.4549C40.4549 21.166 40.4549 21.3372 40.46 21.5538C40.47 21.8107 40.4751 21.9819 40.4751 22.0625V24.5154H40.8931V22.5511C40.8931 21.8056 41.2205 21.4329 41.8703 21.4329C41.9559 21.4329 42.0516 21.443 42.1523 21.4581V21.0401ZM45.1341 23.3973C45.1089 23.6642 45.0132 23.8757 44.8319 24.0369C44.6556 24.1981 44.4289 24.2787 44.167 24.2787C43.7792 24.2787 43.482 24.1225 43.2654 23.8103C43.0791 23.5383 42.9834 23.2059 42.9834 22.7979C42.9834 22.3597 43.074 22.0071 43.2604 21.7402C43.4719 21.4329 43.7842 21.2818 44.2023 21.2818C44.7664 21.2818 45.0736 21.5639 45.124 22.128H45.532C45.4967 21.7452 45.3657 21.4581 45.129 21.2566C44.8923 21.0552 44.58 20.9544 44.1972 20.9544C43.6633 20.9544 43.2503 21.1358 42.9532 21.5034C42.6761 21.8359 42.5401 22.2791 42.5401 22.8231C42.5401 23.367 42.6761 23.78 42.9431 24.0974C43.2302 24.4247 43.6381 24.591 44.162 24.591C44.5498 24.591 44.8671 24.4902 45.1089 24.2837C45.3506 24.0772 45.4917 23.7851 45.5269 23.4023H45.1341V23.3973ZM48.972 22.3949C48.972 21.9316 48.8864 21.5941 48.7152 21.3775C48.5238 21.1358 48.2014 21.0149 47.7481 21.0149C47.2696 21.0149 46.8969 21.2164 46.6199 21.6243V19.5492H46.2018V24.5204H46.6199V22.672C46.6199 22.2892 46.6954 21.987 46.8516 21.7553C47.0379 21.4934 47.3099 21.3624 47.6776 21.3624C48.0453 21.3624 48.282 21.4833 48.413 21.72C48.5036 21.8913 48.549 22.1683 48.549 22.5561V24.5154H48.967V22.3899L48.972 22.3949ZM50.3471 19.5492H49.8434V20.073H50.3471V19.5492ZM50.3068 21.0451H49.8887V24.5154H50.3068V21.0451ZM52.7445 24.1528C52.7143 24.1528 52.6589 24.1578 52.5884 24.1729C52.5179 24.188 52.4625 24.1931 52.4272 24.1931C52.2207 24.1931 52.0847 24.1427 52.0142 24.042C51.9639 23.9664 51.9387 23.8254 51.9387 23.6138V21.3523H52.7143V21.0451H51.9387V20.1435L51.5206 20.3299V21.0451H50.8306V21.3523H51.5206V23.8002C51.5206 24.2888 51.7674 24.5356 52.256 24.5356C52.3819 24.5356 52.5431 24.5255 52.7445 24.5104V24.1528ZM54.5981 20.9897C54.0793 20.9897 53.6814 21.171 53.3993 21.5387C53.1424 21.8661 53.0165 22.3043 53.0165 22.8382C53.0165 23.3721 53.1374 23.77 53.3792 24.0822C53.6512 24.4147 54.039 24.5859 54.5427 24.5859C55.3536 24.5859 55.8321 24.1981 55.9781 23.4174H55.5802C55.5349 23.6843 55.4291 23.8959 55.2579 24.052C55.0917 24.2082 54.87 24.2837 54.5981 24.2837C54.2354 24.2837 53.9483 24.1477 53.7317 23.8707C53.5404 23.6189 53.4447 23.3066 53.4447 22.9288V22.8482H56.0033C56.0033 21.6092 55.5349 20.9947 54.5981 20.9947M53.4598 22.536C53.49 22.1935 53.5958 21.9064 53.7771 21.6848C53.9785 21.438 54.2455 21.312 54.5729 21.312C54.9003 21.312 55.137 21.4279 55.3233 21.6646C55.4946 21.8762 55.5802 22.1431 55.5802 22.4705V22.541H53.4648L53.4598 22.536ZM57.7057 22.546L59.393 21.0451H58.8289L57.1869 22.5511L58.98 24.5154H59.529L57.7057 22.541V22.546ZM57.1466 19.5492H56.7286V24.5204H57.1466V19.5492ZM61.6747 24.1528C61.6444 24.1528 61.5941 24.1578 61.5236 24.1729C61.453 24.188 61.3976 24.1931 61.3624 24.1931C61.1559 24.1931 61.0199 24.1427 60.9494 24.042C60.899 23.9664 60.8738 23.8254 60.8738 23.6138V21.3523H61.6495V21.0451H60.8738V20.1435L60.4558 20.3299V21.0451H59.7657V21.3523H60.4558V23.8002C60.4558 24.2888 60.7026 24.5356 61.1911 24.5356C61.3171 24.5356 61.4782 24.5255 61.6797 24.5104V24.1528H61.6747ZM63.5332 20.9897C63.0144 20.9897 62.6165 21.171 62.3395 21.5387C62.0826 21.8661 61.9517 22.3043 61.9517 22.8382C61.9517 23.3721 62.0726 23.77 62.3143 24.0822C62.5863 24.4147 62.9741 24.5859 63.4778 24.5859C64.2887 24.5859 64.7672 24.1981 64.9133 23.4174H64.5154C64.47 23.6843 64.3643 23.8959 64.193 24.052C64.0218 24.2082 63.8052 24.2837 63.5332 24.2837C63.1706 24.2837 62.8835 24.1477 62.6669 23.8707C62.4755 23.6189 62.3798 23.3066 62.3798 22.9288V22.8482H64.9385C64.9385 21.6092 64.47 20.9947 63.5332 20.9947M62.3899 22.536C62.4201 22.1935 62.5259 21.9064 62.7072 21.6848C62.9087 21.438 63.1756 21.312 63.503 21.312C63.8304 21.312 64.0671 21.4279 64.2535 21.6646C64.4247 21.8762 64.5103 22.1431 64.5103 22.4705V22.541H62.3899V22.536ZM68.4289 22.3949C68.4289 21.9366 68.3433 21.5991 68.172 21.3826C67.9806 21.1358 67.6583 21.0098 67.21 21.0098C66.7315 21.0098 66.3538 21.2113 66.0768 21.6193L66.0516 21.0401H65.6386C65.6386 21.1509 65.6386 21.312 65.6486 21.5337C65.6537 21.7502 65.6587 21.9165 65.6587 22.0273V24.5154H66.0768V22.6669C66.0768 22.2841 66.1523 21.9819 66.3084 21.7502C66.4898 21.4883 66.7668 21.3574 67.1345 21.3574C67.5021 21.3574 67.7389 21.4783 67.8698 21.715C67.9605 21.8862 68.0058 22.1633 68.0058 22.5511V24.5104H68.4239V22.3849L68.4289 22.3949Z" fill="white"/>
</svg>
