<svg fill="none" height="40" viewBox="0 0 160 40" width="160" xmlns="http://www.w3.org/2000/svg" xmlns:xlink="http://www.w3.org/1999/xlink"><linearGradient id="a" gradientUnits="userSpaceOnUse" x1="44" x2="57.5" y1="21.5" y2="18.5"><stop offset="0" stop-color="#c8c7c1"/><stop offset="1" stop-color="#1b1b18"/></linearGradient><linearGradient id="b" gradientUnits="userSpaceOnUse" x1="2.5" x2="21.61" y1="9.71" y2="32.46"><stop offset="0" stop-color="#c2c1bc"/><stop offset="1" stop-color="#292926"/></linearGradient><path d="m44 21.5 13.5-13.5-1.5 6 9 4.5-13.5 13.5 1.5-6z" fill="#1b1b18"/><path d="m56 14-12 7.5 9 4.5z" fill="url(#a)"/><path d="m32.0739 17.4545 1.9261 3.0256 1.9261-3.0256h.3239l-2.0881 3.2728 2.0881 3.2727h-.3239l-1.9261-3.0256-1.9261 3.0256h-.3239l2.0881-3.2727-2.0881-3.2728z" fill="#767676"/><path clip-rule="evenodd" d="m15.22 14.83-3.16-6.83-3.15 6.83-.15.29-1.76-1.76c-.11031-.1103-.24127-.1978-.3854-.2575-.14412-.0597-.2986-.0904-.4546-.0904s-.31048.0307-.4546.0904c-.14413.0597-.27509.1472-.3854.2575s-.19781.2413-.25751.3854-.09043.2986-.09043.4546.03073.3105.09043.4546.1472.2751.25751.3854l1.75 1.74-.2.1-.04.02-6.83 3.16 6.83 3.16.24.11-1.75 1.76c-.22146.2228-.34534.5244-.3444.8385.00046.1556.03156.3095.09151.453s.14758.2738.25789.3835.24114.1965.38501.2556c.14388.0591.29799.0893.45353.0888.31412-.0009.615-.1266.83646-.3494l1.76-1.76.15.3 3.15 6.82 3.16-6.83.12-.24 1.71 1.71c.1097.1103.24.1979.3835.2579.1435.0599.2974.091.453.0915.1555.0005.3096-.0297.4535-.0888s.2747-.1459.385-.2556.1979-.24.2579-.3835c.0599-.1435.091-.2974.0915-.453.0005-.1555-.0297-.3096-.0888-.4535s-.1459-.2747-.2556-.385l-1.73-1.73.29-.15 6.84-3.15-6.83-3.16-.3-.14 1.73-1.73c.1097-.1103.1965-.2411.2556-.385s.0893-.298.0888-.4535c-.0005-.1556-.0316-.3095-.0915-.453-.06-.1435-.1476-.2738-.2579-.3835s-.2411-.1965-.385-.2556-.298-.0893-.4535-.0888c-.1556.0005-.3095.0316-.453.0915-.1435.06-.2738.1476-.3835.2579l-1.7 1.7c-.042-.0688-.082-.1388-.12-.21l-.01-.03zm-3.17.36-.42.9c-.7242 1.5673-1.98266 2.8258-3.55 3.55l-.9.42.9.42c1.56734.7242 2.8258 1.9827 3.55 3.55l.42.9.42-.9c.7242-1.5673 1.9827-2.8258 3.55-3.55l.9-.42-.9-.42c-1.5673-.7242-2.8258-1.9827-3.55-3.55z" fill="url(#b)" fill-rule="evenodd"/></svg>