<svg fill="none" height="90" viewBox="0 0 90 90" width="90" xmlns="http://www.w3.org/2000/svg" xmlns:xlink="http://www.w3.org/1999/xlink"><linearGradient id="a" gradientUnits="userSpaceOnUse" x1="57" x2="70.5" y1="46.5" y2="43.5"><stop offset="0" stop-color="#c8c7c1"/><stop offset="1" stop-color="#1b1b18"/></linearGradient><linearGradient id="b" gradientUnits="userSpaceOnUse" x1="15.5" x2="34.61" y1="34.71" y2="57.46"><stop offset="0" stop-color="#c2c1bc"/><stop offset="1" stop-color="#292926"/></linearGradient><rect fill="#fff" height="90" rx="4" width="90"/><path d="m57 46.5 13.5-13.5-1.5 6 9 4.5-13.5 13.5 1.5-6z" fill="#1b1b18"/><path d="m69 39-12 7.5 9 4.5z" fill="url(#a)"/><path d="m45.0739 42.4545 1.9261 3.0256 1.9261-3.0256h.3239l-2.0881 3.2728 2.0881 3.2727h-.3239l-1.9261-3.0256-1.9261 3.0256h-.3239l2.0881-3.2727-2.0881-3.2728z" fill="#767676"/><path clip-rule="evenodd" d="m28.22 39.83-3.16-6.83-3.15 6.83-.15.29-1.76-1.76c-.1103-.1103-.2413-.1978-.3854-.2575s-.2986-.0904-.4546-.0904-.3105.0307-.4546.0904-.2751.1472-.3854.2575-.1978.2413-.2575.3854-.0904.2986-.0904.4546.0307.3105.0904.4546.1472.2751.2575.3854l1.75 1.74-.2.1-.04.02-6.83 3.16 6.83 3.16.24.11-1.75 1.76c-.2215.2228-.3453.5244-.3444.8385.0005.1556.0316.3095.0915.453.06.1435.1476.2738.2579.3835s.2411.1965.385.2556.298.0893.4535.0888c.3142-.0009.615-.1266.8365-.3494l1.76-1.76.15.3 3.15 6.82 3.16-6.83.12-.24 1.71 1.71c.1097.1103.24.1979.3835.2579.1435.0599.2974.091.453.0915.1555.0005.3096-.0297.4535-.0888s.2747-.1459.385-.2556.1979-.24.2579-.3835c.0599-.1435.091-.2974.0915-.453.0005-.1555-.0297-.3096-.0888-.4535s-.1459-.2747-.2556-.385l-1.73-1.73.29-.15 6.84-3.15-6.83-3.16-.3-.14 1.73-1.73c.1097-.1103.1965-.2411.2556-.385s.0893-.298.0888-.4535c-.0005-.1556-.0316-.3095-.0915-.453-.06-.1435-.1476-.2738-.2579-.3835s-.2411-.1965-.385-.2556-.298-.0893-.4535-.0888c-.1556.0005-.3095.0316-.453.0915-.1435.06-.2738.1476-.3835.2579l-1.7 1.7c-.042-.0688-.082-.1388-.12-.21l-.01-.03zm-3.17.36-.42.9c-.7242 1.5673-1.9827 2.8258-3.55 3.55l-.9.42.9.42c1.5673.7242 2.8258 1.9827 3.55 3.55l.42.9.42-.9c.7242-1.5673 1.9827-2.8258 3.55-3.55l.9-.42-.9-.42c-1.5673-.7242-2.8258-1.9827-3.55-3.55z" fill="url(#b)" fill-rule="evenodd"/></svg>